<svg width="315" height="53" viewBox="0 0 315 53" fill="none" xmlns="http://www.w3.org/2000/svg">
<path d="M142.242 40.2657C141.082 43.1602 139.691 45.7774 138.188 47.4961C137.801 46.0782 137.297 44.6563 136.672 43.2227C136.574 41.6368 136.152 33.6133 137.383 29.5977C137.766 28.3438 138.227 27.086 138.676 25.8711C139.367 23.9883 140.063 22.0704 140.504 20.0821C141.109 21.7891 141.551 23.6954 142.168 25.9297C143.652 31.293 143.891 36.1524 142.242 40.2657ZM119.434 45.4844C118.172 44.4805 117.031 43.3399 115.996 42.0938C118.844 42.8516 121.879 43 124.848 43.1407L125.125 43.1563C125.656 43.1797 126.18 43.1954 126.699 43.211C130.48 43.3204 133.473 43.4102 136.422 47.3086C136.57 47.8008 136.695 48.293 136.816 48.7813C136.438 49.0547 136.055 49.2735 135.668 49.4102C133.84 50.0625 123.672 48.8399 119.434 45.4844ZM114.742 6.07035C115.215 7.6016 115.391 9.2891 115.57 11.043C115.684 12.1602 115.805 13.3282 116.004 14.5274C114.586 11.9297 113.34 9.10942 112.465 6.10942C112.504 6.07035 112.539 6.02739 112.574 6.00004C112.77 5.85551 113.563 5.89067 114.742 6.07035ZM118.188 28.6563C121.262 29.4063 124.438 30.1954 127.813 32.4375C129.063 33.9454 130.176 35.4102 131.172 36.8477C129.059 35.8633 126.824 35.5039 124.234 35.0938L123.789 35.0235C122.52 34.8204 121.238 34.7227 119.996 34.6329C118.875 34.5469 117.719 34.461 116.602 34.2969C114.035 33.918 112.07 33.1172 110.738 31.9258C110.676 31.711 110.602 31.5079 110.543 31.2891C110.168 29.9414 109.98 27.7539 109.941 25.211C112.375 27.2305 115.219 27.9297 118.188 28.6563ZM114.441 18.7227C112.773 18.1133 111.582 17.6719 110.316 16.0664C110.59 13.0977 110.992 10.3555 111.48 8.46879C112.977 12.7696 115.16 16.668 117.43 20C116.309 19.4102 115.32 19.043 114.441 18.7227ZM126.203 14.1211C126.082 15.1563 125.879 16.211 125.68 17.2305C125.457 18.3633 125.23 19.5352 125.109 20.7188C124.848 23.2422 125.492 25.9883 126.32 28.3204C125.602 27.5547 124.73 26.6055 123.781 25.5118C123.719 25.3204 123.656 25.1289 123.59 24.918C122.859 22.6954 121.758 19.336 122.055 14.2461C122.215 11.4844 122.145 9.3516 121.836 7.67973C123.074 8.02738 124.352 8.4102 125.613 8.82817C126.246 10.2227 126.445 12 126.203 14.1211ZM110.141 18.2813C111.336 19.3399 112.547 19.7891 113.875 20.2735C115.684 20.9336 117.73 21.6797 120.594 24.2618C122.07 26.1094 123.457 27.6602 124.578 28.8711C122.469 28.0118 120.449 27.5079 118.578 27.0508C115.23 26.2344 112.293 25.5118 109.945 22.9375C109.969 21.4219 110.035 19.8438 110.141 18.2813ZM130.867 22.7696L130.809 23.043C130.18 26.0118 130.297 30.086 131.012 33.8204C130.715 33.4258 130.406 33.0313 130.094 32.6289C129.168 30.9961 126.281 25.4532 126.75 20.8868C126.863 19.7774 127.086 18.6407 127.297 17.5469C127.504 16.4961 127.715 15.4102 127.84 14.3125C128.047 12.5118 127.965 10.9102 127.602 9.51957C129.09 10.0586 130.512 10.6407 131.773 11.2461C132.527 14.9493 131.688 18.918 130.867 22.7696ZM117.211 10.875C117.055 9.32426 116.895 7.82426 116.547 6.39067C117.586 6.6016 118.773 6.87504 120.043 7.19926C120.469 8.79301 120.59 11.0547 120.406 14.1524C120.211 17.5079 120.586 20.1407 121.082 22.2188C120.824 21.8868 120.566 21.5508 120.309 21.2032C117.906 17.7032 117.555 14.2344 117.211 10.875ZM111.617 34.5C112.934 35.1758 114.516 35.6563 116.359 35.9297C117.535 36.1016 118.723 36.1914 119.875 36.2774C121.082 36.3672 122.328 36.4571 123.527 36.6524L123.977 36.7227C127.789 37.3282 130.559 37.7735 133.313 40.2305C133.969 41.3711 134.547 42.5039 135.043 43.6211C132.406 41.7305 129.637 41.6446 126.746 41.5586C126.238 41.5469 125.723 41.5313 125.203 41.5079L124.926 41.4961C121.273 41.3204 117.512 41.1368 114.273 39.7735C113.238 38.1758 112.355 36.4141 111.617 34.5ZM139.254 17.3711C139.047 20.0469 138.113 22.6172 137.125 25.3008C136.672 26.5391 136.199 27.8164 135.805 29.1133C135.141 31.2891 134.816 35.9727 134.832 39.5586C134.535 39.0352 134.223 38.5039 133.891 37.9727C132.223 33.7539 131.578 27.3672 132.426 23.3829L132.48 23.1133C133.246 19.5235 134.031 15.8321 133.602 12.2149C136.465 13.8633 138.141 15.5118 139.254 17.3711ZM147.422 23.0079C145.883 17.4414 142.656 12.9336 137.754 9.49613C132.844 6.05863 120.988 4.70707 115.133 2.29301C104.238 -2.19918 110.051 0.79301 106.504 15.6993C105.137 21.4297 103.805 28.3789 105.395 34.1133C105.473 34.4063 105.551 34.6797 105.625 34.9493C105.699 35.2188 105.797 35.4922 105.918 35.7696C107.688 40.875 110.934 45.1055 115.664 48.461C120.391 51.8164 135.094 53.4219 137.859 51.9649C138.016 51.8829 138.16 51.7891 138.309 51.7032L138.984 51.2539C142.035 49.0118 143.039 45.25 145.699 40.6094C148.664 35.4336 149.238 29.5704 147.422 23.0079Z" fill="white"/>
<path d="M294.879 5.71878C293.668 5.71878 292.684 6.70316 292.684 7.91409V26.3047C292.684 27.9688 292.684 39.6641 292.641 42.0938C292.605 42.1055 292.535 42.1133 292.531 42.1211L269.863 9.52347C268.301 6.96487 266.609 5.71878 264.703 5.71878C263.145 5.71878 261.871 6.98831 261.871 8.55081V49.0078C261.871 50.1524 262.805 51.086 263.945 51.086C265.094 51.086 266.023 50.1524 266.023 49.0078V12.4375C266.023 12.3946 266.043 12.3633 266.082 12.3477C266.121 12.3321 266.152 12.3438 266.148 12.3321C267.352 14.086 289.844 46.8789 292.68 49.7617C293.41 50.6367 294.145 51.086 294.863 51.086C296.082 51.086 297.074 50.0938 297.074 48.8711V7.91409C297.074 6.70316 296.09 5.71878 294.879 5.71878Z" fill="white"/>
<path d="M186.707 28.211C186.707 39.9805 180.32 47.0117 169.621 47.0117H160.262C159.75 47.0117 159.336 46.5977 159.336 46.086V11.1992C159.336 10.4219 159.969 9.793 160.746 9.793H169.621C182.219 9.793 186.707 19.3086 186.707 28.211ZM170.195 5.71878H157.316C156.043 5.71878 155.008 6.75394 155.008 8.02737V49.2617C155.008 50.2657 155.824 51.0821 156.832 51.0821H170.133C182.59 51.0821 191.289 41.6016 191.289 28.0196C191.289 14.6797 182.812 5.71878 170.195 5.71878Z" fill="white"/>
<path d="M204.508 11.1641C204.508 10.4063 205.125 9.793 205.879 9.793H214.797C227.391 9.793 231.879 19.3047 231.879 28.211C231.879 39.9805 225.492 47.0078 214.797 47.0078H205.434C204.922 47.0078 204.508 46.5938 204.508 46.086V11.1641ZM215.367 5.71878H202.449C201.199 5.71878 200.18 6.73831 200.18 7.98831V49.2617C200.18 50.2657 201 51.0821 202.004 51.0821H215.305C227.762 51.0821 236.461 41.5977 236.461 28.0196C236.461 14.6797 227.984 5.71878 215.367 5.71878Z" fill="white"/>
<path d="M246.297 48.4492V8.3555C246.297 6.76956 247.348 5.48441 248.641 5.48441C249.934 5.48441 250.98 6.76956 250.98 8.3555V48.4492C250.98 50.0313 249.934 51.3164 248.641 51.3164C247.348 51.3164 246.297 50.0313 246.297 48.4492Z" fill="white"/>
<path d="M308.715 48.4492V8.3555C308.715 6.76956 309.766 5.48441 311.059 5.48441C312.352 5.48441 313.402 6.76956 313.402 8.3555V48.4492C313.402 50.0313 312.352 51.3164 311.059 51.3164C309.766 51.3164 308.715 50.0313 308.715 48.4492Z" fill="white"/>
<path d="M94.3945 28.3594C94.3203 33.8789 92.9531 38.5899 90.4453 41.9727C87.6016 45.8047 83.5195 47.7071 78.2578 47.6446C73.418 47.5782 69.3672 45.4766 66.5312 41.5625C63.9531 38 62.5703 33.1797 62.6406 28C62.7578 19.2774 67.0195 9.15628 78.6289 9.15628C78.7187 9.15628 78.8086 9.16019 78.8984 9.16019C89.7773 9.30472 94.5195 18.9063 94.3945 28.3594ZM93.7851 11.8594C90.1875 7.51175 85.1016 5.17191 79.082 5.08987C78.9648 5.08597 78.8516 5.08597 78.7383 5.08597C72.5 5.08597 67.2539 7.39066 63.5547 11.7617C60.0976 15.8477 58.1445 21.6641 58.0547 28.1289C57.9687 34.6055 59.7812 40.4922 63.1562 44.7071C66.7617 49.211 71.8984 51.6328 78.0117 51.7149C78.1328 51.7149 78.2539 51.7188 78.375 51.7188C93.3398 51.7188 98.832 39.1719 98.9766 28.3555C99.0625 21.8711 97.2187 16.0117 93.7851 11.8594Z" fill="white"/>
<path d="M25.1914 29.3086L25.3047 29.1016L26.2305 28.9922L26.3594 29.461C30.6523 38.3399 35.9023 50.7774 37.1328 51.0039C39.4219 51.2383 39.9922 50.1172 40.6836 47.7032L51.543 9.98441C51.7148 9.36331 51.8047 8.78909 51.8047 8.28909C51.8047 5.50003 50.5195 5.14456 49.4023 5.14456C48.5 5.14456 47.2227 5.44925 46.5586 8.08597L38.125 40.3125H37.1211L37.0312 39.9844L28.3945 20.9141C27.1836 18.2969 26.7891 17.6914 25.6562 17.6914C24.5117 17.6914 23.9961 18.4492 22.9297 20.8828L13.8516 41.6055L4.83984 7.42972C4.43359 5.87112 3.52734 5.14456 1.99609 5.14456C0.285156 5.14456 -0.476562 6.06253 -0.476562 8.13284C-0.476562 8.58597 -0.414062 9.04691 -0.285156 9.50394L10.4531 46.8438C11.2617 49.6016 12.3672 51 13.7305 51C14.7227 51 15.4258 50.625 15.9414 49.8282C16.2227 49.3672 22.1016 35.1563 25.1914 29.3086Z" fill="white"/>
</svg>
